# xmcd
#
# Track frame offsets: 
#        150
#        16771
#        45080
#        63886
#        82891
#        100516
#        117766
#        134544
#        150369
#        169134
#        188431
#        208477
#        223282
#        238319
#        256609
#
# Disc length: 3588 seconds
#
# Revision: 0
# Processed by: cddbd v1.5.2PL0 Copyright (c) Steve Scherf et al.
# Submitted via: ExactAudioCopy v0.99pb1
#
DISCID=ba0e020f
DTITLE=Faith Hill - The Hits
DYEAR=2007
DGENRE=Country
TTITLE0=Red Umbrella
TTITLE1=Stronger (Live)
TTITLE2=Lost
TTITLE3=Mississippi Girl
TTITLE4=Cry
TTITLE5=There You'll Be
TTITLE6=The Way You Love Me
TTITLE7=Breathe
TTITLE8=The Secret of Life
TTITLE9=Let Me Let Go
TTITLE10=This Kiss
TTITLE11=It Matters To Me
TTITLE12=Piece of My Heart
TTITLE13=Wild One
TTITLE14=I Need You (with Tim McGraw)
EXTD=
EXTT0=
EXTT1=
EXTT2=
EXTT3=
EXTT4=
EXTT5=
EXTT6=
EXTT7=
EXTT8=
EXTT9=
EXTT10=
EXTT11=
EXTT12=
EXTT13=
EXTT14=
PLAYORDER=
